<mxfile host="app.diagrams.net" modified="2020-11-20T12:39:40.595Z" agent="5.0 (Windows NT 10.0; Win64; x64) AppleWebKit/537.36 (KHTML, like Gecko) Chrome/86.0.4240.198 Safari/537.36" etag="AWUWblIlTjhRPvoxKlWc" version="13.10.0" type="github">
  <diagram id="x1JJyo3W1KWqe7CCuueB" name="Page-1">
    <mxGraphModel dx="400" dy="180" grid="1" gridSize="10" guides="1" tooltips="1" connect="1" arrows="1" fold="1" page="1" pageScale="1" pageWidth="850" pageHeight="1100" math="0" shadow="0">
      <root>
        <mxCell id="0" />
        <mxCell id="1" parent="0" />
        <mxCell id="UYXViiQThttn1sbLCZOa-1" value="Admin" style="shape=umlActor;html=1;verticalLabelPosition=bottom;verticalAlign=top;align=center;" vertex="1" parent="1">
          <mxGeometry x="80" y="50" width="30" height="60" as="geometry" />
        </mxCell>
        <mxCell id="UYXViiQThttn1sbLCZOa-3" value="Notification Service" style="shape=umlActor;html=1;verticalLabelPosition=bottom;verticalAlign=top;align=center;" vertex="1" parent="1">
          <mxGeometry x="700" y="10" width="30" height="60" as="geometry" />
        </mxCell>
        <mxCell id="UYXViiQThttn1sbLCZOa-4" value="Inventory Manger" style="shape=umlActor;html=1;verticalLabelPosition=bottom;verticalAlign=top;align=center;" vertex="1" parent="1">
          <mxGeometry x="130" y="250" width="30" height="50" as="geometry" />
        </mxCell>
        <mxCell id="UYXViiQThttn1sbLCZOa-5" value="Supplier" style="shape=umlActor;html=1;verticalLabelPosition=bottom;verticalAlign=top;align=center;" vertex="1" parent="1">
          <mxGeometry x="720" y="250" width="30" height="60" as="geometry" />
        </mxCell>
        <mxCell id="UYXViiQThttn1sbLCZOa-7" value="Inventory Management System" style="shape=rect;html=1;verticalAlign=top;fontStyle=1;whiteSpace=wrap;align=center;" vertex="1" parent="1">
          <mxGeometry x="220" y="30" width="420" height="380" as="geometry" />
        </mxCell>
      </root>
    </mxGraphModel>
  </diagram>
</mxfile>
